<svg xmlns="http://www.w3.org/2000/svg" viewBox="0 0 64 64" fill="none">
  <rect width="64" height="64" rx="18" fill="#241610" />
  <path
    d="M32 10 43 16.5V29.5L32 36 21 29.5V16.5L32 10Z"
    fill="url(#honey)"
    stroke="#F8E9C8"
    stroke-opacity=".4"
  />
  <path
    d="M32 23c4.2 0 7.6 3.4 7.6 7.6 0 4.2-3.4 7.6-7.6 7.6s-7.6-3.4-7.6-7.6C24.4 26.4 27.8 23 32 23Z"
    fill="#FFF4D8"
    fill-opacity=".18"
  />
  <path
    d="M18 46c4.5-6.4 9.4-9.6 14.6-9.6 5.2 0 10.1 3.2 14.6 9.6"
    stroke="#8D9A6B"
    stroke-width="3.2"
    stroke-linecap="round"
  />
  <circle cx="32" cy="32" r="4.5" fill="#F6C45F" />
  <defs>
    <linearGradient id="honey" x1="21" y1="10" x2="43" y2="36" gradientUnits="userSpaceOnUse">
      <stop stop-color="#FFD67C" />
      <stop offset="1" stop-color="#D97B2A" />
    </linearGradient>
  </defs>
</svg>
